<svg version="1.1" id="Layer_1" xmlns="http://www.w3.org/2000/svg" xmlns:xlink="http://www.w3.org/1999/xlink" x="0px" y="0px" width="344px" height="59.8px" viewBox="0 0 344 59.8" enable-background="new 0 0 344 59.8" xml:space="preserve">
	<g>
		<path fill="#FFE602" d="M338,1.5c-3.3,0-6,2.7-6,6.1c0,3.3,2.7,6,6,6c3.3,0,6.1-2.7,6.1-6C344,4.3,341.3,1.5,338,1.5"/>
		<path fill="#FFE602" d="M77.9,37.5c-3.1-1.7-6.4-2.9-10.2-3.4l-0.3,0c-3.1-0.5-5.7-1.4-7.2-2.4c-1.4-1.1-1.6-1.8-1.6-2.7   c0-1.1,0.7-2.3,1.9-3.3c1.5-1.2,3.8-1.9,6.5-1.9c3.3,0,5.8,1.7,8.5,3.5l0.3,0.2c1.6,1,3.9,0.5,4.9-1.1c1-1.6,0.6-3.8-1.1-5   l-0.1-0.1c-3.1-2-7-4.4-12.5-4.4c-4.1,0-7.8,1-10.6,3c-3.1,2.3-4.9,5.6-4.9,9c0,3.5,1.9,6.6,5,8.4c2.6,1.8,6,2.7,9.4,3.3l0.4,0.1   c3.6,0.6,6.2,1.5,7.6,2.5c1.8,1.5,2.2,2.4,2.2,3.6c0,1.3-0.8,2.5-2.4,3.6c-1.6,1.3-4,2.1-6.5,2.1c-3.5,0-7.3-1.4-11.1-4.2   c-1.5-1.2-3.9-1-5,0.5c-1.2,1.5-1,3.5,0.5,4.9c4.9,3.9,10.1,6,15.6,6h0c4,0,7.7-1.2,10.8-3.5c3.4-2.6,5.2-5.8,5.2-9.3   C83.2,43.3,81.2,39.6,77.9,37.5"/>
		<path fill="#FFE602" d="M124.2,16.9c-2,0-3.8,1.6-3.8,3.5V42c0,5.9-4.5,10.6-10.4,10.7c-5.9-0.1-10.3-4.7-10.3-10.7V20.4   c0-2-1.6-3.5-3.6-3.5c-2,0-3.6,1.6-3.6,3.5V42c0,9.8,8,17.8,17.7,17.8c9.8,0,17.9-8,17.9-17.8V20.4C128,18.4,126.2,16.9,124.2,16.9   "/>
		<path fill="#FFE602" d="M161,16.9c-5.1,0-9.8,1.9-13.6,5.2V3.5c0-2-1.5-3.5-3.5-3.5c-1.9,0-3.4,1.6-3.4,3.5v52.6   c0,1.9,1.5,3.6,3.4,3.6c2,0,3.5-1.6,3.5-3.6v-1.6c3.8,3.3,8.5,5.1,13.6,5.1c11.4,0,20.7-9.6,20.7-21.3   C181.7,26.6,172.4,16.9,161,16.9 M161.1,52.5c-7.5,0-13.6-6.3-13.6-14.1l0-0.6c0.3-7.7,6.2-13.7,13.6-13.7   c7.5,0,13.6,6.4,13.6,14.3C174.6,46.2,168.5,52.5,161.1,52.5"/>
		<path fill="#FFE602" d="M226.3,16.9c-2,0-3.5,1.6-3.5,3.6v1.6c-3.8-3.3-8.3-5.2-13.2-5.2c-11.2,0-20.3,9.6-20.3,21.4   c0,11.8,9.1,21.4,20.3,21.4c4.8,0,9.4-1.9,13.2-5.2v1.7c0,1.9,1.5,3.6,3.5,3.6s3.5-1.6,3.5-3.6V20.5   C229.7,18.5,228.3,16.9,226.3,16.9 M209.6,52.6c-7.3,0-13.2-6.4-13.2-14.3c0-7.9,5.9-14.4,13.2-14.4c7.3,0,13.2,6.4,13.2,14.4   C222.9,46.2,216.9,52.6,209.6,52.6"/>
		<path fill="#FFE602" d="M277.5,19.5c0-0.9-0.4-1.8-1.1-2.4c-1.4-1.4-3.6-1.4-5,0l-20.6,20.6V3.5c0-2-1.7-3.5-3.7-3.5   c-1.9,0-3.6,1.6-3.6,3.5v52.6c0,1.9,1.7,3.6,3.6,3.6c2,0,3.7-1.6,3.7-3.6v-8.4l6.3-6.3l13.9,16.9c0.6,0.9,1.6,1.4,2.8,1.4   c0.9,0,1.7-0.3,2.3-0.8l0.1-0.1c1.4-1.4,1.5-3.5,0.3-5l-14.4-17.5l14.2-14.2C277.1,21.4,277.5,20.5,277.5,19.5"/>
		<path fill="#FFE602" d="M320.6,16.9c-2,0-3.6,1.6-3.6,3.6v1.6c-3.5-3.3-8.2-5.2-13.1-5.2c-11.2,0-20.3,9.6-20.3,21.4   c0,11.8,9,21.4,20.2,21.4c4.9,0,9.7-1.9,13.1-5.2v1.7c0,1.9,1.7,3.6,3.6,3.6s3.6-1.6,3.6-3.6V20.5   C324.2,18.5,322.6,16.9,320.6,16.9 M304,52.6c-7.3,0-13.2-6.4-13.2-14.3c0-7.9,5.9-14.4,13.2-14.4c7.3,0,13.2,6.4,13.2,14.4   C317.2,46.2,311.3,52.6,304,52.6"/>
		<path fill="#FFE602" d="M22.9,26.9L43.5,6.3c0.7-0.7,1.1-1.7,1.1-2.7c0-0.9-0.4-1.8-1.1-2.4c-1.2-1.3-3.6-1.4-5.1,0L6.9,32.6V3.8   c0-2-1.5-3.6-3.5-3.6C1.5,0.2,0,1.8,0,3.8v52.4c0,1.9,1.5,3.6,3.4,3.6c2,0,3.5-1.6,3.5-3.6V42.7L17.7,32l20.7,26.3   c0.7,0.9,1.6,1.4,2.8,1.4c0.6,0,1.5-0.1,2.3-0.8l0.1-0.1c1.4-1.4,1.6-3.4,0.5-5L22.9,26.9z"/>
	</g>
</svg>